# Blender v2.79 (sub 0) OBJ File: 'nolo_controller_textured.blend'
# www.blender.org
mtllib button.mtl
o polySurface275_polySurface284
v 0.005646 0.017236 -0.009779
v 0.004321 0.017236 -0.011761
v 0.004321 0.018660 -0.011761
v 0.005646 0.018660 -0.009779
v 0.002338 0.017236 -0.013086
v 0.002338 0.018660 -0.013086
v 0.000000 0.017236 -0.013551
v 0.000000 0.018660 -0.013551
v -0.002338 0.017236 -0.013086
v -0.002338 0.018660 -0.013086
v -0.004321 0.017236 -0.011761
v -0.004321 0.018660 -0.011761
v -0.005646 0.017236 -0.009779
v -0.005646 0.018660 -0.009779
v -0.006111 0.017236 -0.007440
v -0.006111 0.018660 -0.007440
v -0.005646 0.017236 -0.005102
v -0.005646 0.018660 -0.005102
v -0.004321 0.017236 -0.003119
v -0.004321 0.018660 -0.003119
v -0.002338 0.017236 -0.001795
v -0.002338 0.018660 -0.001795
v -0.000000 0.017236 -0.001329
v -0.000000 0.018660 -0.001329
v 0.002338 0.017236 -0.001795
v 0.002338 0.018660 -0.001795
v 0.004321 0.017236 -0.003119
v 0.004321 0.018660 -0.003119
v 0.005646 0.017236 -0.005102
v 0.005646 0.018660 -0.005102
v 0.006111 0.017236 -0.007440
v 0.006111 0.018660 -0.007440
v 0.003555 0.019110 -0.008913
v 0.002721 0.019110 -0.010161
v 0.000000 0.019214 -0.007440
v 0.001473 0.019110 -0.010995
v 0.000000 0.019110 -0.011288
v -0.001473 0.019110 -0.010995
v -0.002721 0.019110 -0.010161
v -0.003555 0.019110 -0.008913
v -0.003848 0.019110 -0.007440
v -0.003555 0.019110 -0.005968
v -0.002721 0.019110 -0.004719
v -0.001473 0.019110 -0.003885
v 0.000000 0.019110 -0.003592
v 0.001473 0.019110 -0.003885
v 0.002721 0.019110 -0.004719
v 0.003555 0.019110 -0.005968
v 0.003848 0.019110 -0.007440
v 0.005399 0.018850 -0.009677
v 0.004133 0.018850 -0.011573
v 0.002237 0.018850 -0.012839
v 0.000000 0.018850 -0.013284
v -0.002236 0.018850 -0.012839
v -0.004133 0.018850 -0.011573
v -0.005399 0.018850 -0.009677
v -0.005844 0.018850 -0.007440
v -0.005399 0.018850 -0.005204
v -0.004133 0.018850 -0.003308
v -0.002236 0.018850 -0.002041
v -0.000000 0.018850 -0.001596
v 0.002236 0.018850 -0.002041
v 0.004133 0.018850 -0.003308
v 0.005399 0.018850 -0.005204
v 0.005844 0.018850 -0.007440
vt 0.589121 0.239063
vt 0.574992 0.239064
vt 0.574991 0.230629
vt 0.589120 0.230628
vt 0.560862 0.239066
vt 0.560862 0.230630
vt 0.546733 0.239066
vt 0.546732 0.230631
vt 0.659820 0.224802
vt 0.645690 0.224786
vt 0.645700 0.216351
vt 0.659829 0.216367
vt 0.631561 0.224771
vt 0.631571 0.216335
vt 0.617431 0.224753
vt 0.617442 0.216318
vt 0.603301 0.224734
vt 0.603313 0.216299
vt 0.589171 0.224713
vt 0.589184 0.216278
vt 0.575041 0.224690
vt 0.575055 0.216255
vt 0.560912 0.224666
vt 0.560926 0.216231
vt 0.546782 0.224641
vt 0.546797 0.216206
vt 0.659769 0.239046
vt 0.645639 0.239050
vt 0.645636 0.230615
vt 0.659766 0.230611
vt 0.631510 0.239055
vt 0.631507 0.230619
vt 0.617380 0.239058
vt 0.617378 0.230623
vt 0.603251 0.239061
vt 0.603249 0.230626
vt 0.772420 0.194076
vt 0.767055 0.201670
vt 0.750413 0.184667
vt 0.759374 0.206673
vt 0.750378 0.208459
vt 0.741313 0.206736
vt 0.733504 0.201652
vt 0.728202 0.193870
vt 0.726378 0.184641
vt 0.728238 0.175451
vt 0.733468 0.167667
vt 0.741284 0.162463
vt 0.750507 0.160642
vt 0.759729 0.162496
vt 0.767540 0.167755
vt 0.772725 0.175635
vt 0.774440 0.184908
vt 0.783892 0.199169
vt 0.785766 0.200027
vt 0.776989 0.212093
vt 0.775607 0.210629
vt 0.764763 0.219932
vt 0.764015 0.218088
vt 0.750455 0.222826
vt 0.750436 0.220821
vt 0.735939 0.220195
vt 0.736680 0.218302
vt 0.723274 0.212162
vt 0.724709 0.210668
vt 0.714564 0.199553
vt 0.716484 0.198744
vt 0.711668 0.184605
vt 0.713738 0.184616
vt 0.714698 0.169818
vt 0.716601 0.170612
vt 0.723113 0.157282
vt 0.724571 0.158742
vt 0.735689 0.148883
vt 0.736479 0.150793
vt 0.750544 0.145935
vt 0.750542 0.148004
vt 0.765410 0.148906
vt 0.764613 0.150820
vt 0.778036 0.157369
vt 0.776558 0.158836
vt 0.786447 0.170118
vt 0.784508 0.170896
vt 0.789191 0.185177
vt 0.787105 0.185130
vn 0.9239 0.0000 -0.3827
vn 0.7071 0.0000 -0.7071
vn 0.6996 0.1456 -0.6995
vn 0.9140 0.1456 -0.3786
vn 0.3827 0.0000 -0.9239
vn 0.3786 0.1456 -0.9140
vn 0.0000 0.0000 -1.0000
vn 0.0000 0.1456 -0.9893
vn -0.3827 0.0000 -0.9239
vn -0.3786 0.1456 -0.9140
vn -0.7071 0.0000 -0.7071
vn -0.6995 0.1456 -0.6996
vn -0.9239 0.0000 -0.3827
vn -0.9140 0.1456 -0.3786
vn -1.0000 0.0000 -0.0000
vn -0.9893 0.1456 -0.0000
vn -0.9239 -0.0000 0.3827
vn -0.9140 0.1456 0.3786
vn -0.7071 -0.0000 0.7071
vn -0.6996 0.1456 0.6995
vn -0.3827 -0.0000 0.9239
vn -0.3786 0.1456 0.9140
vn -0.0000 -0.0000 1.0000
vn -0.0000 0.1456 0.9893
vn 0.3827 -0.0000 0.9239
vn 0.3786 0.1456 0.9140
vn 0.7071 -0.0000 0.7071
vn 0.6995 0.1456 0.6996
vn 0.9239 0.0000 0.3827
vn 0.9140 0.1456 0.3786
vn 1.0000 0.0000 0.0000
vn 0.9893 0.1456 0.0000
vn 0.0843 0.9958 -0.0349
vn 0.0646 0.9958 -0.0646
vn -0.0000 1.0000 0.0000
vn 0.0349 0.9958 -0.0843
vn -0.0000 0.9958 -0.0913
vn -0.0349 0.9958 -0.0843
vn -0.0645 0.9958 -0.0645
vn -0.0843 0.9958 -0.0349
vn -0.0913 0.9958 0.0000
vn -0.0843 0.9958 0.0349
vn -0.0645 0.9958 0.0645
vn -0.0349 0.9958 0.0843
vn 0.0000 0.9958 0.0913
vn 0.0349 0.9958 0.0843
vn 0.0645 0.9958 0.0645
vn 0.0843 0.9958 0.0349
vn 0.0913 0.9958 -0.0000
vn 0.2076 0.9744 -0.0860
vn 0.1589 0.9744 -0.1589
vn 0.0860 0.9744 -0.2076
vn 0.0000 0.9744 -0.2247
vn -0.0860 0.9744 -0.2076
vn -0.1589 0.9744 -0.1589
vn -0.2076 0.9744 -0.0860
vn -0.2247 0.9744 -0.0000
vn -0.2076 0.9744 0.0860
vn -0.1589 0.9744 0.1589
vn -0.0860 0.9744 0.2076
vn -0.0000 0.9744 0.2248
vn 0.0860 0.9744 0.2076
vn 0.1589 0.9744 0.1589
vn 0.2076 0.9744 0.0860
vn 0.2247 0.9744 0.0000
usemtl lambert3SG
s 1
f 1/1/1 2/2/2 3/3/3 4/4/4
f 2/2/2 5/5/5 6/6/6 3/3/3
f 5/5/5 7/7/7 8/8/8 6/6/6
f 7/9/7 9/10/9 10/11/10 8/12/8
f 9/10/9 11/13/11 12/14/12 10/11/10
f 11/13/11 13/15/13 14/16/14 12/14/12
f 13/15/13 15/17/15 16/18/16 14/16/14
f 15/17/15 17/19/17 18/20/18 16/18/16
f 17/19/17 19/21/19 20/22/20 18/20/18
f 19/21/19 21/23/21 22/24/22 20/22/20
f 21/23/21 23/25/23 24/26/24 22/24/22
f 23/27/23 25/28/25 26/29/26 24/30/24
f 25/28/25 27/31/27 28/32/28 26/29/26
f 27/31/27 29/33/29 30/34/30 28/32/28
f 29/33/29 31/35/31 32/36/32 30/34/30
f 31/35/31 1/1/1 4/4/4 32/36/32
f 33/37/33 34/38/34 35/39/35
f 34/38/34 36/40/36 35/39/35
f 36/40/36 37/41/37 35/39/35
f 37/41/37 38/42/38 35/39/35
f 38/42/38 39/43/39 35/39/35
f 39/43/39 40/44/40 35/39/35
f 40/44/40 41/45/41 35/39/35
f 41/45/41 42/46/42 35/39/35
f 42/46/42 43/47/43 35/39/35
f 43/47/43 44/48/44 35/39/35
f 44/48/44 45/49/45 35/39/35
f 45/49/45 46/50/46 35/39/35
f 46/50/46 47/51/47 35/39/35
f 47/51/47 48/52/48 35/39/35
f 48/52/48 49/53/49 35/39/35
f 49/53/49 33/37/33 35/39/35
f 50/54/50 4/55/4 3/56/3 51/57/51
f 3/56/3 6/58/6 52/59/52 51/57/51
f 6/58/6 8/60/8 53/61/53 52/59/52
f 8/60/8 10/62/10 54/63/54 53/61/53
f 10/62/10 12/64/12 55/65/55 54/63/54
f 12/64/12 14/66/14 56/67/56 55/65/55
f 14/66/14 16/68/16 57/69/57 56/67/56
f 16/68/16 18/70/18 58/71/58 57/69/57
f 18/70/18 20/72/20 59/73/59 58/71/58
f 20/72/20 22/74/22 60/75/60 59/73/59
f 22/74/22 24/76/24 61/77/61 60/75/60
f 24/76/24 26/78/26 62/79/62 61/77/61
f 26/78/26 28/80/28 63/81/63 62/79/62
f 28/80/28 30/82/30 64/83/64 63/81/63
f 30/82/30 32/84/32 65/85/65 64/83/64
f 32/84/32 4/55/4 50/54/50 65/85/65
f 60/75/60 61/77/61 45/49/45 44/48/44
f 59/73/59 60/75/60 44/48/44 43/47/43
f 58/71/58 59/73/59 43/47/43 42/46/42
f 57/69/57 58/71/58 42/46/42 41/45/41
f 56/67/56 57/69/57 41/45/41 40/44/40
f 55/65/55 56/67/56 40/44/40 39/43/39
f 54/63/54 55/65/55 39/43/39 38/42/38
f 53/61/53 54/63/54 38/42/38 37/41/37
f 52/59/52 53/61/53 37/41/37 36/40/36
f 51/57/51 52/59/52 36/40/36 34/38/34
f 33/37/33 50/54/50 51/57/51 34/38/34
f 65/85/65 50/54/50 33/37/33 49/53/49
f 64/83/64 65/85/65 49/53/49 48/52/48
f 63/81/63 64/83/64 48/52/48 47/51/47
f 62/79/62 63/81/63 47/51/47 46/50/46
f 61/77/61 62/79/62 46/50/46 45/49/45
