# Blender v2.79 (sub 0) OBJ File: 'nolo_controller_textured.blend'
# www.blender.org
mtllib sys_button.mtl
o polySurface275_polySurface285
v 0.005646 0.017236 0.007582
v 0.004321 0.017236 0.005599
v 0.004300 0.018342 0.005620
v 0.005619 0.018269 0.007593
v 0.002338 0.017236 0.004275
v 0.002327 0.018400 0.004302
v 0.000000 0.017236 0.003809
v 0.000000 0.018400 0.003839
v -0.002338 0.017236 0.004275
v -0.002327 0.018400 0.004302
v -0.004321 0.017236 0.005599
v -0.004300 0.018342 0.005620
v -0.005646 0.017236 0.007582
v -0.005619 0.018269 0.007593
v -0.006111 0.017236 0.009920
v -0.006081 0.018200 0.009920
v -0.005646 0.017236 0.012259
v -0.005619 0.018269 0.012247
v -0.004321 0.017236 0.014241
v -0.004300 0.018342 0.014220
v -0.002338 0.017236 0.015566
v -0.002327 0.018400 0.015539
v -0.000000 0.017236 0.016031
v -0.000000 0.018400 0.016002
v 0.002338 0.017236 0.015566
v 0.002327 0.018400 0.015539
v 0.004321 0.017236 0.014241
v 0.004300 0.018342 0.014220
v 0.005646 0.017236 0.012259
v 0.005619 0.018269 0.012247
v 0.006111 0.017236 0.009920
v 0.006081 0.018200 0.009920
v 0.003538 0.018008 0.008455
v 0.002708 0.018045 0.007212
v 0.000000 0.017721 0.009920
v 0.001465 0.018074 0.006382
v 0.000000 0.018074 0.006091
v -0.001465 0.018074 0.006382
v -0.002708 0.018045 0.007212
v -0.003538 0.018008 0.008455
v -0.003830 0.017974 0.009920
v -0.003538 0.018008 0.011386
v -0.002708 0.018045 0.012628
v -0.001465 0.018074 0.013458
v 0.000000 0.018074 0.013750
v 0.001465 0.018074 0.013458
v 0.002708 0.018045 0.012628
v 0.003538 0.018008 0.011386
v 0.003830 0.017974 0.009920
v 0.005374 0.018339 0.007694
v 0.004113 0.018412 0.005807
v 0.002226 0.018471 0.004547
v 0.000000 0.018471 0.004104
v -0.002226 0.018471 0.004547
v -0.004113 0.018412 0.005807
v -0.005374 0.018339 0.007694
v -0.005816 0.018270 0.009920
v -0.005374 0.018339 0.012146
v -0.004113 0.018412 0.014033
v -0.002226 0.018471 0.015294
v -0.000000 0.018471 0.015736
v 0.002226 0.018471 0.015294
v 0.004113 0.018412 0.014033
v 0.005374 0.018339 0.012146
v 0.005816 0.018270 0.009920
vt 0.589179 0.210741
vt 0.575064 0.210993
vt 0.574982 0.204444
vt 0.589034 0.204625
vt 0.560949 0.211094
vt 0.560933 0.204200
vt 0.546833 0.211054
vt 0.546886 0.204161
vt 0.659983 0.194599
vt 0.645896 0.195486
vt 0.645497 0.188605
vt 0.659516 0.187721
vt 0.631801 0.196234
vt 0.631489 0.189693
vt 0.617697 0.196833
vt 0.617474 0.190719
vt 0.603588 0.197268
vt 0.603447 0.191563
vt 0.589474 0.197529
vt 0.589396 0.191412
vt 0.575358 0.197626
vt 0.575347 0.191078
vt 0.561243 0.197575
vt 0.561302 0.190682
vt 0.547130 0.197384
vt 0.547256 0.190492
vt 0.659655 0.207049
vt 0.645577 0.208087
vt 0.645105 0.201210
vt 0.659114 0.200177
vt 0.631490 0.208986
vt 0.631108 0.202448
vt 0.617394 0.209737
vt 0.617104 0.203626
vt 0.603290 0.210326
vt 0.603087 0.204622
vt 0.558639 0.021314
vt 0.566456 0.026539
vt 0.549416 0.043583
vt 0.571679 0.034358
vt 0.573505 0.043583
vt 0.571679 0.052808
vt 0.566456 0.060628
vt 0.558639 0.065852
vt 0.549415 0.067671
vt 0.540212 0.065816
vt 0.532405 0.060599
vt 0.527158 0.052805
vt 0.525326 0.043583
vt 0.527152 0.034358
vt 0.532374 0.026539
vt 0.540192 0.021314
vt 0.549415 0.019489
vt 0.563530 0.009595
vt 0.564178 0.007982
vt 0.576691 0.016333
vt 0.575475 0.017571
vt 0.585056 0.028832
vt 0.583456 0.029501
vt 0.587979 0.043583
vt 0.586245 0.043583
vt 0.585056 0.058335
vt 0.583456 0.057666
vt 0.576691 0.070833
vt 0.575475 0.069596
vt 0.564178 0.079185
vt 0.563530 0.077572
vt 0.549403 0.082091
vt 0.549404 0.080349
vt 0.534697 0.079116
vt 0.535344 0.077501
vt 0.522220 0.070779
vt 0.523429 0.069538
vt 0.513787 0.058346
vt 0.515389 0.057670
vt 0.510851 0.043584
vt 0.512586 0.043584
vt 0.513775 0.028832
vt 0.515375 0.029501
vt 0.522140 0.016333
vt 0.523356 0.017571
vt 0.534652 0.007982
vt 0.535301 0.009595
vt 0.549415 0.005066
vt 0.549415 0.006807
vn 0.9210 0.0283 -0.3884
vn 0.7029 0.0266 -0.7108
vn 0.6884 0.2155 -0.6926
vn 0.8984 0.2275 -0.3756
vn 0.3804 0.0254 -0.9245
vn 0.3730 0.2089 -0.9040
vn 0.0000 0.0251 -0.9997
vn -0.0000 0.2047 -0.9788
vn -0.3804 0.0254 -0.9245
vn -0.3730 0.2089 -0.9040
vn -0.7029 0.0265 -0.7107
vn -0.6884 0.2155 -0.6926
vn -0.9210 0.0283 -0.3884
vn -0.8984 0.2275 -0.3757
vn -0.9996 0.0293 -0.0000
vn -0.9731 0.2303 0.0000
vn -0.9210 0.0283 0.3884
vn -0.8984 0.2275 0.3756
vn -0.7029 0.0266 0.7108
vn -0.6884 0.2155 0.6926
vn -0.3804 0.0254 0.9245
vn -0.3730 0.2089 0.9040
vn -0.0000 0.0251 0.9997
vn 0.0000 0.2047 0.9788
vn 0.3804 0.0254 0.9245
vn 0.3730 0.2089 0.9040
vn 0.7029 0.0265 0.7107
vn 0.6884 0.2155 0.6926
vn 0.9210 0.0283 0.3884
vn 0.8984 0.2275 0.3757
vn 0.9996 0.0293 0.0000
vn 0.9731 0.2303 -0.0000
vn -0.1109 0.9910 0.0754
vn -0.0852 0.9890 0.1207
vn -0.0000 1.0000 0.0000
vn -0.0497 0.9876 0.1490
vn -0.0000 0.9875 0.1575
vn 0.0497 0.9876 0.1490
vn 0.0852 0.9890 0.1207
vn 0.1109 0.9910 0.0754
vn 0.1194 0.9929 -0.0000
vn 0.1109 0.9910 -0.0754
vn 0.0852 0.9890 -0.1207
vn 0.0497 0.9876 -0.1490
vn -0.0000 0.9875 -0.1575
vn -0.0497 0.9876 -0.1490
vn -0.0852 0.9890 -0.1207
vn -0.1109 0.9910 -0.0754
vn -0.1194 0.9929 -0.0000
vn -0.0730 0.9954 0.0622
vn -0.0557 0.9940 0.0942
vn -0.0338 0.9930 0.1130
vn -0.0000 0.9930 0.1180
vn 0.0338 0.9930 0.1131
vn 0.0556 0.9940 0.0942
vn 0.0730 0.9954 0.0622
vn 0.0786 0.9969 -0.0000
vn 0.0730 0.9954 -0.0622
vn 0.0557 0.9940 -0.0942
vn 0.0338 0.9930 -0.1130
vn 0.0000 0.9930 -0.1180
vn -0.0338 0.9930 -0.1130
vn -0.0557 0.9940 -0.0942
vn -0.0730 0.9954 -0.0622
vn -0.0786 0.9969 0.0000
usemtl lambert3SG
s 1
f 1/1/1 2/2/2 3/3/3 4/4/4
f 2/2/2 5/5/5 6/6/6 3/3/3
f 5/5/5 7/7/7 8/8/8 6/6/6
f 7/9/7 9/10/9 10/11/10 8/12/8
f 9/10/9 11/13/11 12/14/12 10/11/10
f 11/13/11 13/15/13 14/16/14 12/14/12
f 13/15/13 15/17/15 16/18/16 14/16/14
f 15/17/15 17/19/17 18/20/18 16/18/16
f 17/19/17 19/21/19 20/22/20 18/20/18
f 19/21/19 21/23/21 22/24/22 20/22/20
f 21/23/21 23/25/23 24/26/24 22/24/22
f 23/27/23 25/28/25 26/29/26 24/30/24
f 25/28/25 27/31/27 28/32/28 26/29/26
f 27/31/27 29/33/29 30/34/30 28/32/28
f 29/33/29 31/35/31 32/36/32 30/34/30
f 31/35/31 1/1/1 4/4/4 32/36/32
f 33/37/33 34/38/34 35/39/35
f 34/38/34 36/40/36 35/39/35
f 36/40/36 37/41/37 35/39/35
f 37/41/37 38/42/38 35/39/35
f 38/42/38 39/43/39 35/39/35
f 39/43/39 40/44/40 35/39/35
f 40/44/40 41/45/41 35/39/35
f 41/45/41 42/46/42 35/39/35
f 42/46/42 43/47/43 35/39/35
f 43/47/43 44/48/44 35/39/35
f 44/48/44 45/49/45 35/39/35
f 45/49/45 46/50/46 35/39/35
f 46/50/46 47/51/47 35/39/35
f 47/51/47 48/52/48 35/39/35
f 48/52/48 49/53/49 35/39/35
f 49/53/49 33/37/33 35/39/35
f 50/54/50 4/55/4 3/56/3 51/57/51
f 3/56/3 6/58/6 52/59/52 51/57/51
f 6/58/6 8/60/8 53/61/53 52/59/52
f 8/60/8 10/62/10 54/63/54 53/61/53
f 10/62/10 12/64/12 55/65/55 54/63/54
f 12/64/12 14/66/14 56/67/56 55/65/55
f 14/66/14 16/68/16 57/69/57 56/67/56
f 16/68/16 18/70/18 58/71/58 57/69/57
f 18/70/18 20/72/20 59/73/59 58/71/58
f 20/72/20 22/74/22 60/75/60 59/73/59
f 22/74/22 24/76/24 61/77/61 60/75/60
f 24/76/24 26/78/26 62/79/62 61/77/61
f 26/78/26 28/80/28 63/81/63 62/79/62
f 28/80/28 30/82/30 64/83/64 63/81/63
f 30/82/30 32/84/32 65/85/65 64/83/64
f 32/84/32 4/55/4 50/54/50 65/85/65
f 60/75/60 61/77/61 45/49/45 44/48/44
f 59/73/59 60/75/60 44/48/44 43/47/43
f 58/71/58 59/73/59 43/47/43 42/46/42
f 57/69/57 58/71/58 42/46/42 41/45/41
f 56/67/56 57/69/57 41/45/41 40/44/40
f 55/65/55 56/67/56 40/44/40 39/43/39
f 54/63/54 55/65/55 39/43/39 38/42/38
f 53/61/53 54/63/54 38/42/38 37/41/37
f 52/59/52 53/61/53 37/41/37 36/40/36
f 51/57/51 52/59/52 36/40/36 34/38/34
f 33/37/33 50/54/50 51/57/51 34/38/34
f 65/85/65 50/54/50 33/37/33 49/53/49
f 64/83/64 65/85/65 49/53/49 48/52/48
f 63/81/63 64/83/64 48/52/48 47/51/47
f 62/79/62 63/81/63 47/51/47 46/50/46
f 61/77/61 62/79/62 46/50/46 45/49/45
