# Blender v2.79 (sub 0) OBJ File: 'nolo_controller_textured.blend'
# www.blender.org
mtllib trackpad.mtl
o polySurface276_polySurface275
v 0.021522 0.012671 -0.048020
v 0.019296 0.012952 -0.053386
v 0.019230 0.017647 -0.053102
v 0.021448 0.017366 -0.047754
v 0.015755 0.013193 -0.057994
v 0.015701 0.017887 -0.057694
v 0.011140 0.013379 -0.061530
v 0.011102 0.018072 -0.061218
v 0.005767 0.013495 -0.063753
v 0.005747 0.018188 -0.063433
v 0.000000 0.013535 -0.064511
v 0.000000 0.018228 -0.064189
v -0.005767 0.013495 -0.063753
v -0.005747 0.018188 -0.063433
v -0.011140 0.013379 -0.061530
v -0.011102 0.018072 -0.061218
v -0.015755 0.013193 -0.057994
v -0.015701 0.017887 -0.057694
v -0.019296 0.012952 -0.053386
v -0.019230 0.017647 -0.053102
v -0.021522 0.012671 -0.048020
v -0.021448 0.017366 -0.047754
v -0.022281 0.012369 -0.042261
v -0.022205 0.017066 -0.042015
v -0.021522 0.012067 -0.036502
v -0.021448 0.016765 -0.036275
v -0.019296 0.011786 -0.031136
v -0.019230 0.016485 -0.030927
v -0.015755 0.011544 -0.026527
v -0.015701 0.016244 -0.026335
v -0.011140 0.011359 -0.022991
v -0.011102 0.016059 -0.022811
v -0.005767 0.011242 -0.020769
v -0.005747 0.015943 -0.020596
v -0.000000 0.011203 -0.020010
v -0.000000 0.015904 -0.019840
v 0.005767 0.011242 -0.020769
v 0.005747 0.015943 -0.020596
v 0.011140 0.011359 -0.022991
v 0.011102 0.016059 -0.022811
v 0.015755 0.011544 -0.026527
v 0.015701 0.016244 -0.026335
v 0.019296 0.011786 -0.031136
v 0.019230 0.016485 -0.030927
v 0.021522 0.012067 -0.036502
v 0.021448 0.016765 -0.036275
v 0.022281 0.012369 -0.042261
v 0.022205 0.017066 -0.042015
v 0.014517 0.017039 -0.045911
v 0.013015 0.017229 -0.049531
v 0.000000 0.016155 -0.042062
v 0.010627 0.017392 -0.052639
v 0.007514 0.017517 -0.055024
v 0.003890 0.017596 -0.056523
v 0.000000 0.017622 -0.057035
v -0.003890 0.017596 -0.056523
v -0.007514 0.017517 -0.055024
v -0.010627 0.017392 -0.052639
v -0.013015 0.017229 -0.049531
v -0.014517 0.017039 -0.045911
v -0.015029 0.016836 -0.042027
v -0.014517 0.016632 -0.038142
v -0.013015 0.016443 -0.034523
v -0.010627 0.016280 -0.031414
v -0.007514 0.016155 -0.029029
v -0.003890 0.016076 -0.027530
v -0.000000 0.016049 -0.027019
v 0.003890 0.016076 -0.027530
v 0.007514 0.016155 -0.029029
v 0.010627 0.016280 -0.031414
v 0.013015 0.016443 -0.034523
v 0.014517 0.016632 -0.038142
v 0.015029 0.016836 -0.042027
v 0.020657 0.017596 -0.047529
v 0.021201 0.017603 -0.047675
v 0.019008 0.017880 -0.052961
v 0.018520 0.017866 -0.052680
v 0.015520 0.018118 -0.057501
v 0.015122 0.018098 -0.057103
v 0.010974 0.018301 -0.060984
v 0.010693 0.018275 -0.060497
v 0.005681 0.018416 -0.063174
v 0.005535 0.018387 -0.062630
v 0.000000 0.018455 -0.063920
v 0.000000 0.018425 -0.063358
v -0.005681 0.018416 -0.063174
v -0.005535 0.018387 -0.062630
v -0.010974 0.018301 -0.060984
v -0.010693 0.018275 -0.060497
v -0.015520 0.018118 -0.057501
v -0.015122 0.018098 -0.057103
v -0.019008 0.017880 -0.052961
v -0.018520 0.017866 -0.052680
v -0.021201 0.017603 -0.047675
v -0.020657 0.017596 -0.047529
v -0.021949 0.017306 -0.042002
v -0.021385 0.017306 -0.042002
v -0.021201 0.017009 -0.036329
v -0.020657 0.017016 -0.036475
v -0.019008 0.016732 -0.031043
v -0.018520 0.016747 -0.031324
v -0.015520 0.016494 -0.026503
v -0.015122 0.016515 -0.026901
v -0.010974 0.016311 -0.023020
v -0.010693 0.016337 -0.023507
v -0.005681 0.016197 -0.020830
v -0.005535 0.016225 -0.021374
v -0.000000 0.016157 -0.020084
v 0.000000 0.016187 -0.020646
v 0.005681 0.016197 -0.020830
v 0.005535 0.016225 -0.021374
v 0.010974 0.016311 -0.023020
v 0.010693 0.016337 -0.023507
v 0.015520 0.016494 -0.026503
v 0.015122 0.016515 -0.026901
v 0.019008 0.016732 -0.031043
v 0.018520 0.016747 -0.031324
v 0.021201 0.017009 -0.036329
v 0.020657 0.017016 -0.036475
v 0.021949 0.017306 -0.042002
v 0.021385 0.017306 -0.042002
v 0.021370 0.017536 -0.047724
v 0.022124 0.017237 -0.042006
v 0.019160 0.017816 -0.053053
v 0.015644 0.018055 -0.057628
v 0.011062 0.018239 -0.061140
v 0.005726 0.018355 -0.063347
v 0.000000 0.018394 -0.064100
v -0.005726 0.018355 -0.063347
v -0.011062 0.018239 -0.061140
v -0.015644 0.018055 -0.057628
v -0.019160 0.017816 -0.053053
v -0.021371 0.017536 -0.047724
v -0.022124 0.017237 -0.042006
v -0.021371 0.016937 -0.036287
v -0.019160 0.016658 -0.030959
v -0.015644 0.016418 -0.026383
v -0.011062 0.016234 -0.022872
v -0.005726 0.016118 -0.020664
v -0.000000 0.016079 -0.019912
v 0.005726 0.016118 -0.020664
v 0.011062 0.016234 -0.022872
v 0.015644 0.016418 -0.026383
v 0.019160 0.016658 -0.030959
v 0.021371 0.016937 -0.036287
vt 0.912464 0.563951
vt 0.912667 0.527964
vt 0.941843 0.528301
vt 0.941492 0.564072
vt 0.913164 0.491770
vt 0.942449 0.492320
vt 0.913965 0.455506
vt 0.943268 0.456256
vt 0.915031 0.419286
vt 0.944271 0.420225
vt 0.916336 0.383192
vt 0.945545 0.384299
vt 0.961188 0.786457
vt 0.960116 0.750900
vt 0.988074 0.750136
vt 0.989676 0.785074
vt 0.959743 0.716993
vt 0.986757 0.716406
vt 0.959524 0.684158
vt 0.985713 0.683743
vt 0.959466 0.652256
vt 0.984938 0.652005
vt 0.959551 0.621161
vt 0.984394 0.621067
vt 0.959795 0.590803
vt 0.984080 0.590864
vt 0.960179 0.561019
vt 0.984052 0.561258
vt 0.960697 0.531668
vt 0.984306 0.532056
vt 0.961361 0.502546
vt 0.984795 0.503092
vt 0.962174 0.473570
vt 0.985503 0.474277
vt 0.963183 0.444688
vt 0.986449 0.445563
vt 0.964374 0.415858
vt 0.987648 0.416867
vt 0.916915 0.795876
vt 0.915970 0.762752
vt 0.942613 0.762019
vt 0.943683 0.795039
vt 0.915262 0.729869
vt 0.941710 0.729276
vt 0.914699 0.697302
vt 0.940990 0.696840
vt 0.914172 0.664852
vt 0.940548 0.664523
vt 0.913658 0.632139
vt 0.940433 0.631943
vt 0.913090 0.598704
vt 0.940729 0.598656
vt 0.492502 0.190585
vt 0.483435 0.212475
vt 0.404570 0.166985
vt 0.469041 0.231307
vt 0.450264 0.245822
vt 0.428346 0.255016
vt 0.404768 0.258232
vt 0.381134 0.255227
vt 0.359065 0.246190
vt 0.340080 0.231728
vt 0.325480 0.212832
vt 0.316266 0.190782
vt 0.313083 0.167078
vt 0.316167 0.143337
vt 0.325337 0.121197
vt 0.339944 0.102228
vt 0.358956 0.087718
vt 0.381064 0.078642
vt 0.404749 0.075604
vt 0.428399 0.078803
vt 0.450394 0.088017
vt 0.469232 0.102604
vt 0.483629 0.121549
vt 0.492627 0.143549
vt 0.495640 0.167091
vt 0.529585 0.200585
vt 0.532861 0.201469
vt 0.519670 0.233317
vt 0.516728 0.231625
vt 0.498777 0.260747
vt 0.496359 0.258361
vt 0.471478 0.282031
vt 0.469750 0.279093
vt 0.439493 0.295581
vt 0.438584 0.292287
vt 0.405036 0.300391
vt 0.405011 0.296966
vt 0.370443 0.296052
vt 0.371309 0.292736
vt 0.338115 0.282875
vt 0.339816 0.279896
vt 0.310337 0.261729
vt 0.312751 0.259294
vt 0.288966 0.234119
vt 0.291929 0.232391
vt 0.275440 0.201911
vt 0.278753 0.201006
vt 0.270702 0.167245
vt 0.274140 0.167227
vt 0.275080 0.132468
vt 0.278423 0.133341
vt 0.288600 0.099829
vt 0.291580 0.101576
vt 0.310095 0.072143
vt 0.312514 0.074586
vt 0.337958 0.050980
vt 0.339660 0.053963
vt 0.370297 0.037770
vt 0.371170 0.041087
vt 0.404931 0.033359
vt 0.404916 0.036788
vt 0.439526 0.038047
vt 0.438622 0.041357
vt 0.471702 0.051590
vt 0.469970 0.054547
vt 0.499232 0.072983
vt 0.496792 0.075387
vt 0.520196 0.100749
vt 0.517223 0.102436
vt 0.533232 0.132946
vt 0.529931 0.133802
vt 0.537484 0.167300
vt 0.534087 0.167278
vt 0.942608 0.564090
vt 0.941860 0.598673
vt 0.533973 0.201770
vt 0.538636 0.167307
vt 0.520668 0.233891
vt 0.942941 0.528316
vt 0.499596 0.261556
vt 0.943544 0.492342
vt 0.472062 0.283024
vt 0.944363 0.456284
vt 0.439800 0.296690
vt 0.945367 0.420260
vt 0.405045 0.301541
vt 0.946650 0.384401
vt 0.370152 0.297165
vt 0.990629 0.784974
vt 0.989033 0.750096
vt 0.337544 0.283874
vt 0.987736 0.716371
vt 0.309527 0.262545
vt 0.986708 0.683715
vt 0.287973 0.234699
vt 0.985947 0.651984
vt 0.274331 0.202215
vt 0.985415 0.621053
vt 0.269553 0.167251
vt 0.985111 0.590858
vt 0.273970 0.132174
vt 0.985090 0.561262
vt 0.287606 0.099252
vt 0.985348 0.532069
vt 0.309287 0.071326
vt 0.985839 0.503113
vt 0.337388 0.049982
vt 0.986549 0.474307
vt 0.370004 0.036658
vt 0.987495 0.445602
vt 0.404936 0.032209
vt 0.988679 0.416966
vt 0.439829 0.036938
vt 0.944814 0.794942
vt 0.943759 0.761984
vt 0.472284 0.050597
vt 0.942860 0.729247
vt 0.500051 0.072176
vt 0.942143 0.696819
vt 0.521196 0.100182
vt 0.941699 0.664512
vt 0.534346 0.132658
vt 0.941579 0.631945
vn 0.9658 0.0297 -0.2576
vn 0.8659 0.0423 -0.4984
vn 0.8656 0.0576 -0.4974
vn 0.9654 0.0450 -0.2567
vn 0.7070 0.0531 -0.7052
vn 0.7068 0.0684 -0.7041
vn 0.4999 0.0615 -0.8639
vn 0.4998 0.0767 -0.8628
vn 0.2588 0.0667 -0.9636
vn 0.2587 0.0819 -0.9625
vn 0.0000 0.0685 -0.9977
vn 0.0000 0.0837 -0.9965
vn -0.2588 0.0667 -0.9636
vn -0.2587 0.0819 -0.9625
vn -0.4999 0.0614 -0.8639
vn -0.4997 0.0767 -0.8628
vn -0.7070 0.0531 -0.7052
vn -0.7067 0.0684 -0.7041
vn -0.8659 0.0423 -0.4984
vn -0.8656 0.0576 -0.4974
vn -0.9658 0.0297 -0.2576
vn -0.9654 0.0450 -0.2567
vn -0.9999 0.0161 0.0008
vn -0.9995 0.0314 0.0016
vn -0.9658 0.0026 0.2593
vn -0.9654 0.0179 0.2600
vn -0.8659 -0.0100 0.5001
vn -0.8656 0.0053 0.5007
vn -0.7070 -0.0209 0.7069
vn -0.7068 -0.0056 0.7074
vn -0.4999 -0.0292 0.8656
vn -0.4998 -0.0139 0.8661
vn -0.2588 -0.0344 0.9653
vn -0.2587 -0.0191 0.9658
vn -0.0000 -0.0362 0.9993
vn -0.0000 -0.0209 0.9998
vn 0.2588 -0.0344 0.9653
vn 0.2587 -0.0191 0.9658
vn 0.4999 -0.0292 0.8656
vn 0.4997 -0.0139 0.8661
vn 0.7070 -0.0209 0.7069
vn 0.7068 -0.0056 0.7074
vn 0.8659 -0.0100 0.5001
vn 0.8656 0.0053 0.5007
vn 0.9658 0.0026 0.2593
vn 0.9654 0.0179 0.2600
vn 0.9999 0.0161 0.0008
vn 0.9995 0.0314 0.0017
vn -0.0587 0.9960 0.0680
vn -0.0529 0.9952 0.0828
vn 0.0000 0.9986 0.0523
vn -0.0430 0.9945 0.0952
vn -0.0304 0.9940 0.1048
vn -0.0159 0.9937 0.1114
vn -0.0000 0.9936 0.1133
vn 0.0159 0.9937 0.1114
vn 0.0304 0.9940 0.1048
vn 0.0430 0.9945 0.0952
vn 0.0527 0.9952 0.0826
vn 0.0587 0.9960 0.0680
vn 0.0608 0.9968 0.0522
vn 0.0587 0.9976 0.0365
vn 0.0527 0.9984 0.0219
vn 0.0430 0.9990 0.0093
vn 0.0304 0.9995 -0.0004
vn 0.0157 0.9999 -0.0064
vn 0.0000 1.0000 -0.0085
vn -0.0157 0.9999 -0.0064
vn -0.0304 0.9995 -0.0003
vn -0.0430 0.9990 0.0093
vn -0.0527 0.9984 0.0219
vn -0.0587 0.9976 0.0365
vn -0.0608 0.9968 0.0522
vn -0.0635 0.9956 0.0692
vn 0.1034 0.9943 0.0244
vn 0.0927 0.9957 -0.0014
vn -0.0569 0.9948 0.0850
vn 0.0757 0.9969 -0.0236
vn -0.0465 0.9940 0.0986
vn 0.0535 0.9977 -0.0406
vn -0.0329 0.9935 0.1091
vn 0.0277 0.9983 -0.0512
vn -0.0170 0.9931 0.1156
vn -0.0000 0.9985 -0.0549
vn 0.0000 0.9930 0.1179
vn -0.0277 0.9983 -0.0512
vn 0.0170 0.9931 0.1156
vn -0.0535 0.9977 -0.0406
vn 0.0329 0.9935 0.1091
vn -0.0757 0.9969 -0.0236
vn 0.0465 0.9940 0.0986
vn -0.0927 0.9957 -0.0014
vn 0.0569 0.9948 0.0850
vn -0.1034 0.9943 0.0244
vn 0.0635 0.9956 0.0692
vn -0.1071 0.9929 0.0520
vn 0.0657 0.9965 0.0522
vn -0.1034 0.9914 0.0797
vn 0.0635 0.9974 0.0352
vn -0.0927 0.9901 0.1055
vn 0.0569 0.9982 0.0194
vn -0.0757 0.9889 0.1276
vn 0.0465 0.9989 0.0058
vn -0.0535 0.9880 0.1446
vn 0.0329 0.9994 -0.0046
vn -0.0277 0.9875 0.1553
vn 0.0170 0.9998 -0.0112
vn 0.0000 0.9873 0.1589
vn -0.0000 0.9999 -0.0134
vn 0.0277 0.9875 0.1553
vn -0.0170 0.9998 -0.0112
vn 0.0535 0.9880 0.1446
vn -0.0329 0.9994 -0.0046
vn 0.0757 0.9889 0.1276
vn -0.0465 0.9989 0.0058
vn 0.0927 0.9901 0.1055
vn -0.0569 0.9982 0.0194
vn 0.1034 0.9914 0.0797
vn -0.0635 0.9974 0.0352
vn 0.1071 0.9929 0.0520
vn -0.0657 0.9965 0.0522
vn 0.6780 0.7208 -0.1442
vn 0.7020 0.7112 0.0373
vn 0.6079 0.7296 -0.3132
vn 0.4963 0.7373 -0.4584
vn 0.3510 0.7431 -0.5698
vn 0.1817 0.7467 -0.6399
vn -0.0000 0.7481 -0.6636
vn -0.1817 0.7468 -0.6398
vn -0.3510 0.7430 -0.5698
vn -0.4964 0.7372 -0.4584
vn -0.6079 0.7296 -0.3132
vn -0.6780 0.7208 -0.1442
vn -0.7019 0.7113 0.0373
vn -0.6780 0.7018 0.2187
vn -0.6079 0.6929 0.3878
vn -0.4963 0.6853 0.5329
vn -0.3510 0.6794 0.6444
vn -0.1817 0.6758 0.7144
vn -0.0000 0.6745 0.7383
vn 0.1817 0.6758 0.7143
vn 0.3510 0.6794 0.6444
vn 0.4964 0.6853 0.5329
vn 0.6079 0.6928 0.3878
vn 0.6780 0.7017 0.2187
usemtl lambert3SG
s 1
f 1/1/1 2/2/2 3/3/3 4/4/4
f 2/2/2 5/5/5 6/6/6 3/3/3
f 5/5/5 7/7/7 8/8/8 6/6/6
f 7/7/7 9/9/9 10/10/10 8/8/8
f 9/9/9 11/11/11 12/12/12 10/10/10
f 11/13/11 13/14/13 14/15/14 12/16/12
f 13/14/13 15/17/15 16/18/16 14/15/14
f 15/17/15 17/19/17 18/20/18 16/18/16
f 17/19/17 19/21/19 20/22/20 18/20/18
f 19/21/19 21/23/21 22/24/22 20/22/20
f 21/23/21 23/25/23 24/26/24 22/24/22
f 23/25/23 25/27/25 26/28/26 24/26/24
f 25/27/25 27/29/27 28/30/28 26/28/26
f 28/30/28 27/29/27 29/31/29 30/32/30
f 29/31/29 31/33/31 32/34/32 30/32/30
f 31/33/31 33/35/33 34/36/34 32/34/32
f 33/35/33 35/37/35 36/38/36 34/36/34
f 35/39/35 37/40/37 38/41/38 36/42/36
f 37/40/37 39/43/39 40/44/40 38/41/38
f 39/43/39 41/45/41 42/46/42 40/44/40
f 41/45/41 43/47/43 44/48/44 42/46/42
f 43/47/43 45/49/45 46/50/46 44/48/44
f 45/49/45 47/51/47 48/52/48 46/50/46
f 47/51/47 1/1/1 4/4/4 48/52/48
f 49/53/49 50/54/50 51/55/51
f 50/54/50 52/56/52 51/55/51
f 52/56/52 53/57/53 51/55/51
f 53/57/53 54/58/54 51/55/51
f 54/58/54 55/59/55 51/55/51
f 55/59/55 56/60/56 51/55/51
f 56/60/56 57/61/57 51/55/51
f 57/61/57 58/62/58 51/55/51
f 58/62/58 59/63/59 51/55/51
f 59/63/59 60/64/60 51/55/51
f 60/64/60 61/65/61 51/55/51
f 61/65/61 62/66/62 51/55/51
f 62/66/62 63/67/63 51/55/51
f 63/67/63 64/68/64 51/55/51
f 64/68/64 65/69/65 51/55/51
f 65/69/65 66/70/66 51/55/51
f 66/70/66 67/71/67 51/55/51
f 67/71/67 68/72/68 51/55/51
f 68/72/68 69/73/69 51/55/51
f 69/73/69 70/74/70 51/55/51
f 70/74/70 71/75/71 51/55/51
f 71/75/71 72/76/72 51/55/51
f 72/76/72 73/77/73 51/55/51
f 73/77/73 49/53/49 51/55/51
f 74/78/74 75/79/75 76/80/76 77/81/77
f 76/80/76 78/82/78 79/83/79 77/81/77
f 78/82/78 80/84/80 81/85/81 79/83/79
f 80/84/80 82/86/82 83/87/83 81/85/81
f 82/86/82 84/88/84 85/89/85 83/87/83
f 84/88/84 86/90/86 87/91/87 85/89/85
f 86/90/86 88/92/88 89/93/89 87/91/87
f 88/92/88 90/94/90 91/95/91 89/93/89
f 90/94/90 92/96/92 93/97/93 91/95/91
f 92/96/92 94/98/94 95/99/95 93/97/93
f 94/98/94 96/100/96 97/101/97 95/99/95
f 96/100/96 98/102/98 99/103/99 97/101/97
f 98/102/98 100/104/100 101/105/101 99/103/99
f 100/104/100 102/106/102 103/107/103 101/105/101
f 102/106/102 104/108/104 105/109/105 103/107/103
f 104/108/104 106/110/106 107/111/107 105/109/105
f 106/110/106 108/112/108 109/113/109 107/111/107
f 108/112/108 110/114/110 111/115/111 109/113/109
f 110/114/110 112/116/112 113/117/113 111/115/111
f 112/116/112 114/118/114 115/119/115 113/117/113
f 114/118/114 116/120/116 117/121/117 115/119/115
f 116/120/116 118/122/118 119/123/119 117/121/117
f 118/122/118 120/124/120 121/125/121 119/123/119
f 120/124/120 75/79/75 74/78/74 121/125/121
f 77/81/77 79/83/79 52/56/52 50/54/50
f 79/83/79 81/85/81 53/57/53 52/56/52
f 81/85/81 83/87/83 54/58/54 53/57/53
f 83/87/83 85/89/85 55/59/55 54/58/54
f 85/89/85 87/91/87 56/60/56 55/59/55
f 87/91/87 89/93/89 57/61/57 56/60/56
f 89/93/89 91/95/91 58/62/58 57/61/57
f 91/95/91 93/97/93 59/63/59 58/62/58
f 93/97/93 95/99/95 60/64/60 59/63/59
f 95/99/95 97/101/97 61/65/61 60/64/60
f 97/101/97 99/103/99 62/66/62 61/65/61
f 99/103/99 101/105/101 63/67/63 62/66/62
f 101/105/101 103/107/103 64/68/64 63/67/63
f 103/107/103 105/109/105 65/69/65 64/68/64
f 105/109/105 107/111/107 66/70/66 65/69/65
f 107/111/107 109/113/109 67/71/67 66/70/66
f 109/113/109 111/115/111 68/72/68 67/71/67
f 111/115/111 113/117/113 69/73/69 68/72/68
f 113/117/113 115/119/115 70/74/70 69/73/69
f 115/119/115 117/121/117 71/75/71 70/74/70
f 117/121/117 119/123/119 72/76/72 71/75/71
f 119/123/119 121/125/121 73/77/73 72/76/72
f 121/125/121 74/78/74 49/53/49 73/77/73
f 74/78/74 77/81/77 50/54/50 49/53/49
f 4/4/4 122/126/122 123/127/123 48/52/48
f 122/128/122 75/79/75 120/124/120 123/129/123
f 75/79/75 122/128/122 124/130/124 76/80/76
f 122/126/122 4/4/4 3/3/3 124/131/124
f 76/80/76 124/130/124 125/132/125 78/82/78
f 124/131/124 3/3/3 6/6/6 125/133/125
f 78/82/78 125/132/125 126/134/126 80/84/80
f 125/133/125 6/6/6 8/8/8 126/135/126
f 80/84/80 126/134/126 127/136/127 82/86/82
f 126/135/126 8/8/8 10/10/10 127/137/127
f 82/86/82 127/136/127 128/138/128 84/88/84
f 127/137/127 10/10/10 12/12/12 128/139/128
f 84/88/84 128/138/128 129/140/129 86/90/86
f 128/141/128 12/16/12 14/15/14 129/142/129
f 86/90/86 129/140/129 130/143/130 88/92/88
f 129/142/129 14/15/14 16/18/16 130/144/130
f 88/92/88 130/143/130 131/145/131 90/94/90
f 130/144/130 16/18/16 18/20/18 131/146/131
f 90/94/90 131/145/131 132/147/132 92/96/92
f 131/146/131 18/20/18 20/22/20 132/148/132
f 92/96/92 132/147/132 133/149/133 94/98/94
f 132/148/132 20/22/20 22/24/22 133/150/133
f 94/98/94 133/149/133 134/151/134 96/100/96
f 133/150/133 22/24/22 24/26/24 134/152/134
f 96/100/96 134/151/134 135/153/135 98/102/98
f 134/152/134 24/26/24 26/28/26 135/154/135
f 98/102/98 135/153/135 136/155/136 100/104/100
f 135/154/135 26/28/26 28/30/28 136/156/136
f 100/104/100 136/155/136 137/157/137 102/106/102
f 136/156/136 28/30/28 30/32/30 137/158/137
f 102/106/102 137/157/137 138/159/138 104/108/104
f 137/158/137 30/32/30 32/34/32 138/160/138
f 104/108/104 138/159/138 139/161/139 106/110/106
f 138/160/138 32/34/32 34/36/34 139/162/139
f 106/110/106 139/161/139 140/163/140 108/112/108
f 139/162/139 34/36/34 36/38/36 140/164/140
f 108/112/108 140/163/140 141/165/141 110/114/110
f 140/166/140 36/42/36 38/41/38 141/167/141
f 110/114/110 141/165/141 142/168/142 112/116/112
f 141/167/141 38/41/38 40/44/40 142/169/142
f 112/116/112 142/168/142 143/170/143 114/118/114
f 142/169/142 40/44/40 42/46/42 143/171/143
f 114/118/114 143/170/143 144/172/144 116/120/116
f 143/171/143 42/46/42 44/48/44 144/173/144
f 116/120/116 144/172/144 145/174/145 118/122/118
f 144/173/144 44/48/44 46/50/46 145/175/145
f 118/122/118 145/174/145 123/129/123 120/124/120
f 145/175/145 46/50/46 48/52/48 123/127/123
